# xmcd
#
# Track frame offsets:
#	150
#	18340
#	38175
#	61125
#	80770
#	101387
#	121755
#	141732
#	163882
#	186157
#	208470
#	237277
#	262165
#	287857
#	304715
#	321895
#
# Disc length: 4568 seconds
#
# Revision: 1
# Processed by: cddbd v1.5.1PL0 Copyright (c) Steve Scherf et al.
# Submitted via: CDex 1.50Beta5
#
DISCID=f311d610
DTITLE=ちあきなおみ - ちあきなおみ chateau chant 1981 Disc 2
DYEAR=2001
DGENRE=Pop
TTITLE0=色は匂へど
TTITLE1=砂塵の町へ
TTITLE2=十六酔いフラッパー
TTITLE3=合鍵
TTITLE4=WOMAN IN TOWN
TTITLE5=キリがないね
TTITLE6=猫
TTITLE7=曖昧2
TTITLE8=五分前
TTITLE9=いかないで
TTITLE10=百花繚乱
TTITLE11=部屋
TTITLE12=時の流れに
TTITLE13=あなたのための微笑み
TTITLE14=嘘は罪
TTITLE15=そ・れ・じゃ・ネ
EXTD=
EXTT0=
EXTT1=
EXTT2=
EXTT3=
EXTT4=
EXTT5=
EXTT6=
EXTT7=
EXTT8=
EXTT9=
EXTT10=
EXTT11=
EXTT12=
EXTT13=
EXTT14=
EXTT15=
PLAYORDER=
